<?xml version="1.0" standalone="no"?><!DOCTYPE svg PUBLIC "-//W3C//DTD SVG 1.1//EN" "http://www.w3.org/Graphics/SVG/1.1/DTD/svg11.dtd"><svg xmlns:xlink="http://www.w3.org/1999/xlink" version="1.1" class="highcharts-root" style="font-family:proximanova, 'helvetica neue', helvetica, arial, sans-serif;font-size:12px;" xmlns="http://www.w3.org/2000/svg" width="800" height="400" viewBox="0 0 800 400"><desc>Created with Highstock 5.0.14</desc><defs><clipPath id="highcharts-v8kdur0-20"><rect x="0" y="0" width="728" height="319" fill="none"></rect></clipPath><clipPath id="highcharts-v8kdur0-21"><rect x="0" y="0" width="728" height="319" fill="none"></rect></clipPath></defs><rect fill="#fff" class="highcharts-background" x="0" y="0" width="800" height="400" rx="0" ry="0"></rect><rect fill="none" class="highcharts-plot-background" x="62" y="45" width="728" height="319"></rect><g class="highcharts-range-selector-buttons" transform="translate(0,10)"><text x="62" y="15" style="color:#8a8a8a;font-size:13px;font-family:arial;margin-top:-10px;fill:#8a8a8a;"></text><g class="highcharts-button highcharts-button-normal" style="cursor:pointer;" states="[object Object]" transform="translate(67,0)"><rect fill="#e6e6e6" class=" highcharts-button-box" x="0" y="0" width="34" height="22" rx="0" ry="0"></rect><text x="11.15625" style="font-size:12px;font-weight:normal;color:#555;fill:#555;" y="14">1h</text></g><g class="highcharts-button highcharts-button-normal" style="cursor:pointer;" states="[object Object]" transform="translate(103,0)"><rect fill="#e6e6e6" class=" highcharts-button-box" x="0" y="0" width="34" height="22" rx="0" ry="0"></rect><text x="7.6328125" style="font-size:12px;font-weight:normal;color:#555;fill:#555;" y="14">12h</text></g><g class="highcharts-button highcharts-button-normal" style="cursor:pointer;" states="[object Object]" transform="translate(139,0)"><rect fill="#e6e6e6" class=" highcharts-button-box" x="0" y="0" width="34" height="22" rx="0" ry="0"></rect><text x="10.96875" style="font-size:12px;font-weight:normal;color:#555;fill:#555;" y="14">1d</text></g><g class="highcharts-button highcharts-button-normal" style="cursor:pointer;" states="[object Object]" transform="translate(175,0)"><rect fill="#e6e6e6" class=" highcharts-button-box" x="0" y="0" width="34" height="22" rx="0" ry="0"></rect><text x="9.96875" style="font-size:12px;font-weight:normal;color:#555;fill:#555;" y="14">1w</text></g><g class="highcharts-button highcharts-button-normal" style="cursor:pointer;" states="[object Object]" transform="translate(211,0)"><rect fill="#e6e6e6" class=" highcharts-button-box" x="0" y="0" width="34" height="22" rx="0" ry="0"></rect><text x="9.46875" style="font-size:12px;font-weight:normal;color:#555;fill:#555;" y="14">1m</text></g><g class="highcharts-button highcharts-button-normal" style="cursor:pointer;" states="[object Object]" transform="translate(247,0)"><rect fill="#e6e6e6" class=" highcharts-button-box" x="0" y="0" width="34" height="22" rx="0" ry="0"></rect><text x="9.46875" style="font-size:12px;font-weight:normal;color:#555;fill:#555;" y="14">3m</text></g><g class="highcharts-button highcharts-button-normal" style="cursor:pointer;" states="[object Object]" transform="translate(283,0)"><rect fill="#e6e6e6" class=" highcharts-button-box" x="0" y="0" width="34" height="22" rx="0" ry="0"></rect><text x="10.96875" style="font-size:12px;font-weight:normal;color:#555;fill:#555;" y="14">1y</text></g><g class="highcharts-button highcharts-button-pressed" style="cursor:pointer;" states="[object Object]" transform="translate(319,0)"><rect fill="#FBC001" class=" highcharts-button-box" x="0" y="0" width="34" height="22" rx="0" ry="0"></rect><text x="9.703125" style="font-size:12px;font-weight:bold;color:#555;fill:#555;" y="14">All</text></g></g><g class="highcharts-input-group" transform="translate(482,10)"><g class="highcharts-label highcharts-range-label" transform="translate(0,0)" style="margin-top:-10px;fill:#8a8a8a;"><text x="2" y="14" style="font-size:13px;font-family:arial;color:#8a8a8a;fill:#8a8a8a;"></text></g><g class="highcharts-label highcharts-range-input" transform="translate(9,0)"><rect fill="none" class="highcharts-label-box" x="0.5" y="0.5" width="94" height="21" stroke="#d8d8d8" stroke-width="1"></rect><text x="14.1484375" y="14" style="font-size:12px;font-family:arial;color:#8a8a8a;fill:#8a8a8a;"><tspan>Jul 18, 2010</tspan></text></g><g class="highcharts-label highcharts-range-label" transform="translate(113,0)" style="margin-top:-10px;fill:#8a8a8a;"><text x="2" y="14" style="font-size:13px;font-family:arial;color:#8a8a8a;fill:#8a8a8a;">to</text></g><g class="highcharts-label highcharts-range-input" transform="translate(134,0)"><rect fill="none" class="highcharts-label-box" x="0.5" y="0.5" width="94" height="21" stroke="#d8d8d8" stroke-width="1"></rect><text x="11.484375" y="14" style="font-size:12px;font-family:arial;color:#8a8a8a;fill:#8a8a8a;"><tspan>Mar 27, 2018</tspan></text></g></g><image preserveAspectRatio="none" x="640" y="271" width="150" height="29" xmlns:xlink="http://www.w3.org/1999/xlink" xlink:href="https://www.coindesk.com/wp-content/themes/coindesk2/images/bpi-chart-branding.png"></image><g class="highcharts-grid highcharts-xaxis-grid "><path fill="none" class="highcharts-grid-line" d="M 199.5 45 L 199.5 364" opacity="1"></path><path fill="none" class="highcharts-grid-line" d="M 388.5 45 L 388.5 364" opacity="1"></path><path fill="none" class="highcharts-grid-line" d="M 577.5 45 L 577.5 364" opacity="1"></path><path fill="none" class="highcharts-grid-line" d="M 767.5 45 L 767.5 364" opacity="1"></path></g><g class="highcharts-grid highcharts-yaxis-grid "><path fill="none" stroke="#e8e8e8" stroke-width="1" class="highcharts-grid-line" d="M 62 364.5 L 790 364.5" opacity="1"></path><path fill="none" stroke="#e8e8e8" stroke-width="1" class="highcharts-grid-line" d="M 62 300.5 L 790 300.5" opacity="1"></path><path fill="none" stroke="#e8e8e8" stroke-width="1" class="highcharts-grid-line" d="M 62 236.5 L 790 236.5" opacity="1"></path><path fill="none" stroke="#e8e8e8" stroke-width="1" class="highcharts-grid-line" d="M 62 173.5 L 790 173.5" opacity="1"></path><path fill="none" stroke="#e8e8e8" stroke-width="1" class="highcharts-grid-line" d="M 62 109.5 L 790 109.5" opacity="1"></path><path fill="none" stroke="#e8e8e8" stroke-width="1" class="highcharts-grid-line" d="M 62 44.5 L 790 44.5" opacity="1"></path></g><rect fill="none" class="highcharts-plot-border" x="62" y="45" width="728" height="319"></rect><g class="highcharts-axis highcharts-xaxis "><path fill="none" class="highcharts-tick" stroke="#ccd6eb" stroke-width="1" d="M 199.5 364 L 199.5 374" opacity="1"></path><path fill="none" class="highcharts-tick" stroke="#ccd6eb" stroke-width="1" d="M 388.5 364 L 388.5 374" opacity="1"></path><path fill="none" class="highcharts-tick" stroke="#ccd6eb" stroke-width="1" d="M 577.5 364 L 577.5 374" opacity="1"></path><path fill="none" class="highcharts-tick" stroke="#ccd6eb" stroke-width="1" d="M 767.5 364 L 767.5 374" opacity="1"></path><path fill="none" class="highcharts-axis-line" stroke="#fff" stroke-width="1" d="M 62 364.5 L 790 364.5"></path></g><g class="highcharts-axis highcharts-yaxis "><path fill="none" class="highcharts-axis-line" d="M 62 45 L 62 364"></path></g><g class="highcharts-series-group"><g class="highcharts-series highcharts-series-0 highcharts-line-series highcharts-color-undefined " transform="translate(62,45) scale(1 1)" clip-path="url(#highcharts-v8kdur0-21)"><path fill="none" d="M 0.25909733623954 255.19919794285715 L 2.0727786899164 255.19919794285715 L 3.8864600435932 255.1992344 L 5.70014139727 255.19912502857142 L 7.5138227509468 255.1991068 L 9.3275041046236 255.1992344 L 11.1411854583 255.1992344 L 12.954866811977 255.1992344 L 14.768548165654 255.1992344 L 16.582229519331 255.1992344 L 18.395910873008 255.1992344 L 20.209592226684 255.19903388571427 L 22.023273580361 255.19876045714284 L 23.836954934038 255.19866931428572 L 25.650636287715 255.19777611428572 L 27.464317641392 255.19671885714286 L 29.277998995069 255.19682822857143 L 31.091680348745 255.19666417142855 L 32.905361702422 255.19642720000002 L 34.719043056099 255.19715634285714 L 36.532724409776 255.19722925714285 L 38.346405763453 255.19691937142858 L 40.160087117129 255.19677354285713 L 41.973768470806 255.19628137142857 L 43.787449824483 255.19608085714285 L 45.60113117816 255.1954793142857 L 47.414812531837 255.1951512 L 49.228493885513 255.1944585142857 L 51.04217523919 255.19041177142856 L 52.855856592867 255.18709417142856 L 54.669537946544 255.1874222857143 L 56.483219300221 255.18840662857144 L 58.296900653897 255.1883884 L 60.110582007574 255.18864359999998 L 61.924263361251 255.1894821142857 L 63.737944714928 255.1893362857143 L 65.551626068605 255.1899925142857 L 67.365307422282 255.19070342857142 L 69.178988775958 255.18778685714287 L 70.992670129635 255.182774 L 72.806351483312 255.16924840000001 L 74.620032836989 255.15568634285714 L 76.433714190666 255.12015885714285 L 78.247395544342 255.11377885714285 L 80.061076898019 255.09609714285716 L 81.874758251696 255.04033594285715 L 83.688439605373 254.91173337142857 L 85.50212095905 254.9708850857143 L 87.315802312726 254.97850462857141 L 89.129483666403 254.9942358857143 L 90.94316502008 255.01786011428572 L 92.756846373757 255.0234562857143 L 94.570527727434 255.02502394285713 L 96.384209081111 255.02547965714285 L 98.197890434787 255.07349371428572 L 100.01157178846 255.0767384 L 101.82525314214 255.05727028571428 L 103.63893449582 255.0757176 L 105.45261584949 255.09159468571428 L 107.26629720317 255.1200677142857 L 109.07997855685 255.13231731428573 L 110.89365991053 255.1289814857143 L 112.7073412642 255.1370385142857 L 114.52102261788 255.14174148571428 L 116.33470397156 255.14965268571427 L 118.14838532523 255.16627714285715 L 119.96206667891 255.16142834285714 L 121.77574803259 255.16018880000001 L 123.58942938626 255.16182937142855 L 125.40311073994 255.17118062857142 L 127.21679209362 255.1693030857143 L 129.03047344729 255.16341525714284 L 130.84415480097 255.16144657142857 L 132.65783615465 255.1593138285714 L 134.47151750832 255.15012662857143 L 136.285198862 255.14405651428572 L 138.09888021568 255.12117965714285 L 139.91256156935 255.115146 L 141.72624292303 255.1206328 L 143.53992427671 255.1270128 L 145.35360563038 255.12586439999998 L 147.16728698406 255.1278330857143 L 148.98096833774 255.14287165714285 L 150.79464969141 255.14024674285713 L 152.60833104509 255.13849679999998 L 154.42201239877 255.1372208 L 156.23569375245 255.1330829142857 L 158.04937510612 255.13991862857142 L 159.8630564598 255.1386973142857 L 161.67673781348 255.13769474285715 L 163.49041916715 255.13723902857143 L 165.30410052083 255.1344136 L 167.11778187451 255.1356896 L 168.93146322818 255.135562 L 170.74514458186 255.13649165714287 L 172.55882593554 255.13521565714285 L 174.37250728921 255.13465057142855 L 176.18618864289 255.1337756 L 177.99986999657 255.12996582857141 L 179.81355135024 255.1230572 L 181.62723270392 255.11707822857142 L 183.4409140576 255.1162397142857 L 185.25459541127 255.11505485714287 L 187.06827676495 255.10528434285715 L 188.88195811863 255.08869634285713 L 190.6956394723 255.08835 L 192.50932082598 255.06993914285715 L 194.32300217966 255.05672342857142 L 196.13668353334 255.05021582857142 L 197.95036488701 255.0693922857143 L 199.76404624069 255.0652544 L 201.57772759437 255.06118942857142 L 203.39140894804 255.05316885714285 L 205.20509030172 255.0436170857143 L 207.0187716554 255.0431796 L 208.83245300907 255.03964325714284 L 210.64613436275 255.04793725714285 L 212.45981571643 255.04952314285714 L 214.2734970701 255.05964 L 216.08717842378 255.06297582857144 L 217.90085977746 255.06135348571428 L 219.71454113113 255.05544742857143 L 221.52822248481 255.04514828571428 L 223.34190383849 255.04164839999999 L 225.15558519216 255.03032845714284 L 226.96926654584 255.0272296 L 228.78294789952 255.02892485714284 L 230.59662925319 255.02885194285713 L 232.41031060687 255.02887017142857 L 234.22399196055 255.02183394285714 L 236.03767331422 255.00715994285713 L 237.8513546679 254.97841348571427 L 239.66503602158 254.94647702857145 L 241.47871737526 254.91811337142855 L 243.29239872893 254.86756554285716 L 245.10608008261 254.8250382857143 L 246.91976143629 254.78251102857143 L 248.73344278996 254.65946817142856 L 250.54712414364 254.6018658857143 L 252.36080549732 254.37645137142857 L 254.17448685099 254.10096297142857 L 255.98816820467 253.49316771428573 L 257.80184955835 253.3636537142857 L 259.61553091202 253.89277445714285 L 261.4292122657 253.43890125714285 L 263.24289361938 253.68185165714286 L 265.05657497305 253.74898748571428 L 266.87025632673 253.68516925714286 L 268.68393768041 253.57109485714287 L 270.49761903408 253.55862651428572 L 272.31130038776 253.73744879999998 L 274.12498174144 253.87336102857142 L 275.93866309511 253.82476365714285 L 277.75234444879 253.92704417142858 L 279.56602580247 254.22925565714286 L 281.37970715615 254.11589217142858 L 283.19338850982 254.07207068571427 L 285.0070698635 254.0666750285714 L 286.82075121718 253.97059222857143 L 288.63443257085 253.98497457142855 L 290.44811392453 253.95096005714285 L 292.26179527821 253.82099034285716 L 294.07547663188 253.6583368 L 295.88915798556 253.6541989142857 L 297.70283933924 253.6180152 L 299.51652069291 253.6146429142857 L 301.33020204659 253.62306451428572 L 303.14388340027 253.6882498857143 L 304.95756475394 253.59306028571427 L 306.77124610762 253.33286565714286 L 308.5849274613 252.86397211428573 L 310.39860881497 252.67382988571427 L 312.21229016865 251.60297422857144 L 314.02597152233 250.09554428571428 L 315.839652876 246.52263491428573 L 317.65333422968 242.70227268571426 L 319.46701558336 243.13232114285714 L 321.28069693704 243.73021828571427 L 323.09437829071 247.05793514285713 L 324.90805964439 246.05724125714283 L 326.72174099807 244.77353057142858 L 328.53542235174 243.94998194285714 L 330.34910370542 244.29470245714285 L 332.1627850591 244.20678605714286 L 333.97646641277 244.46791034285712 L 335.79014776645 245.43710525714286 L 337.60382912013 246.98137514285713 L 339.4175104738 247.5604057142857 L 341.23119182748 248.08759422857142 L 343.04487318116 246.9616336 L 344.85855453483 247.15130188571428 L 346.67223588851 247.67743314285713 L 348.48591724219 248.48592497142857 L 350.29959859586 249.37374754285713 L 352.11327994954 249.81639194285714 L 353.92696130322 248.85935548571427 L 355.74064265689 249.16614234285714 L 357.55432401057 249.54715594285716 L 359.36800536425 249.61022680000002 L 361.18168671792 249.55262451428572 L 362.9953680716 248.71040982857141 L 364.80904942528 247.61660439999997 L 366.62273077896 246.87087354285714 L 368.43641213263 247.42378257142855 L 370.25009348631 247.59691754285714 L 372.06377483999 247.73450680000002 L 373.87745619366 247.08832217142856 L 375.69113754734 247.23938234285714 L 377.50481890102 247.26883971428572 L 379.31850025469 247.46836965714286 L 381.13218160837 247.76184965714288 L 382.94586296205 247.71101017142857 L 384.75954431572 248.4480642285714 L 386.5732256694 248.82869502857142 L 388.38690702308 248.78310537142858 L 390.20058837675 249.08376742857143 L 392.01426973043 249.14228114285714 L 393.82795108411 249.71903314285714 L 395.64163243778 250.01971342857144 L 397.45531379146 250.6136732 L 399.26899514514 250.6917097142857 L 401.08267649881 250.2509793142857 L 402.89635785249 250.55257102857144 L 404.71003920617 250.89085685714286 L 406.52372055985 250.850116 L 408.33740191352 250.2075953142857 L 410.1510832672 250.53477994285714 L 411.96476462088 250.4300021142857 L 413.77844597455 250.40840125714286 L 415.59212732823 250.72760177142857 L 417.40580868191 251.0677286857143 L 419.21949003558 251.07243165714286 L 421.03317138926 251.34647999999999 L 422.84685274294 251.6181950857143 L 424.66053409661 252.46830274285713 L 426.47421545029 252.24957811428573 L 428.28789680397 252.1568676 L 430.10157815764 252.31864617142855 L 431.91525951132 252.26669474285714 L 433.728940865 252.14348782857144 L 435.54262221867 252.07385468571428 L 437.35630357235 251.69617691428573 L 439.16998492603 251.5183572 L 440.9836662797 251.7762914857143 L 442.79734763338 252.01727319999998 L 444.61102898706 251.9996826285714 L 446.42471034074 252.09764297142857 L 448.23839169441 252.3561241142857 L 450.05207304809 252.27422314285712 L 451.86575440177 252.23991697142856 L 453.67943575544 252.16193514285715 L 455.49311710912 252.16581782857145 L 457.3067984628 252.18298914285714 L 459.12047981647 252.1925409142857 L 460.93416117015 252.33229937142858 L 462.74784252383 252.25836428571426 L 464.5615238775 252.06638097142857 L 466.37520523118 252.0741281142857 L 468.18888658486 251.88613685714284 L 470.00256793853 251.63310605714287 L 471.81624929221 251.61956222857143 L 473.62993064589 251.60259142857143 L 475.44361199956 251.53932005714285 L 477.25729335324 251.68502102857144 L 479.07097470692 251.83331045714286 L 480.88465606059 252.2372556 L 482.69833741427 252.33842417142858 L 484.51201876795 252.25207542857143 L 486.32570012162 252.16370331428573 L 488.1393814753 252.25322382857144 L 489.95306282898 252.2410106857143 L 491.76674418266 252.16501577142856 L 493.58042553633 252.08264085714285 L 495.39410689001 251.91891182857142 L 497.20778824369 251.7008981142857 L 499.02146959736 251.25985782857143 L 500.83515095104 250.29733457142856 L 502.64883230472 250.90137474285712 L 504.46251365839 251.00352765714285 L 506.27619501207 250.80071657142855 L 508.08987636575 250.45842045714284 L 509.90355771942 249.78496588571429 L 511.7172390731 249.3864164 L 513.53092042678 249.61112 L 515.34460178045 249.71597074285714 L 517.15828313413 249.5401197142857 L 518.97196448781 249.96900154285714 L 520.78564584148 250.16377382857144 L 522.59932719516 250.3177141142857 L 524.41300854884 250.39186794285715 L 526.22668990251 250.307178 L 528.04037125619 249.8410369714286 L 529.85405260987 249.72637925714287 L 531.66773396355 249.87419474285713 L 533.48141531722 249.92131559999999 L 535.2950966709 249.92742217142856 L 537.10877802458 249.8811216 L 538.92245937825 249.87317394285714 L 540.73614073193 249.8360788 L 542.54982208561 249.75481582857142 L 544.36350343928 249.5145814857143 L 546.17718479296 249.39620514285713 L 547.99086614664 249.42238137142857 L 549.80454750031 249.38738251428572 L 551.61822885399 249.5106441142857 L 553.43191020767 249.15742908571428 L 555.24559156134 248.16927645714287 L 557.05927291502 247.56370508571428 L 558.8729542687 245.8607008 L 560.68663562237 246.84593685714287 L 562.50031697605 246.7124854857143 L 564.31399832973 246.7584944 L 566.1276796834 246.75122119999997 L 567.94136103708 246.73202651428574 L 569.75504239076 246.89723205714284 L 571.56872374444 247.7993276 L 573.38240509811 247.7311345142857 L 575.19608645179 247.86711965714284 L 577.00976780547 247.83545662857142 L 578.82344915914 247.7739898857143 L 580.63713051282 247.34957405714283 L 582.4508118665 247.45836217142858 L 584.26449322017 247.54206777142858 L 586.07817457385 247.44773491428572 L 587.89185592753 247.37775542857145 L 589.7055372812 247.10203005714285 L 591.51921863488 247.06768742857145 L 593.33289998856 246.52412965714285 L 595.14658134223 246.13028314285714 L 596.96026269591 246.13923337142856 L 598.77394404959 245.85831285714283 L 600.58762540326 245.7895729142857 L 602.40130675694 245.60883662857142 L 604.21498811062 245.4433212 L 606.02866946429 245.24118457142856 L 607.84235081797 244.28792142857142 L 609.65603217165 242.9728576 L 611.46971352532 242.62427262857142 L 613.283394879 244.53604874285713 L 615.09707623268 243.7999608 L 616.91075758636 243.60584474285713 L 618.72443894003 242.53333028571427 L 620.53812029371 242.21573388571426 L 622.35180164739 242.05052834285715 L 624.16548300106 240.58079508571427 L 625.97916435474 239.31879462857142 L 627.79284570842 239.9176214285714 L 629.60652706209 240.65252451428572 L 631.42020841577 242.27659908571428 L 633.23388976945 241.65489542857142 L 635.04757112312 240.2436941142857 L 636.8612524768 239.92068382857144 L 638.67493383048 239.42610622857143 L 640.48861518415 238.5738293714286 L 642.30229653783 236.11585234285712 L 644.11597789151 233.1073542285714 L 645.92965924518 231.17379497142858 L 647.74334059886 226.35204617142858 L 649.55702195254 224.4021358857143 L 651.37070330621 218.82032857142858 L 653.18438465989 222.13120222857142 L 654.99806601357 220.88429502857144 L 656.81174736725 222.90879662857142 L 658.62542872092 222.24026377142854 L 660.4391100746 226.6601090285714 L 662.25279142828 222.31624045714284 L 664.06647278195 220.76713999999998 L 665.88015413563 217.6713817142857 L 667.69383548931 208.86951548571426 L 669.50751684298 200.86861268571428 L 671.32119819666 200.62987308571428 L 673.13487955034 195.5747621142857 L 674.94856090401 199.04278428571428 L 676.76224225769 206.9380525142857 L 678.57592361137 206.9351724 L 680.38960496504 202.10263228571426 L 682.20328631872 199.28004737142857 L 684.0169676724 187.85494388571428 L 685.83064902607 181.18560177142857 L 687.64433037975 181.05123897142857 L 689.45801173343 167.19147279999999 L 691.2716930871 168.71051434285712 L 693.08537444078 160.8850433142857 L 694.89905579446 147.90854257142857 L 696.71273714814 123.37893731428571 L 698.52641850181 73.11950297142852 L 700.34009985549 31.266229028571445 L 702.15378120917 52.924961885714254 L 703.96746256284 72.20856657142858 L 705.78114391652 57.06530845714286 L 707.5948252702 74.35738702857142 L 709.40850662387 103.6782082285714 L 711.22218797755 112.39660582857141 L 713.03586933123 133.70447514285715 L 714.8495506849 153.5740008 L 716.66323203858 130.20801640000002 L 718.47691339226 123.78501520000003 L 720.29059474593 116.60337731428572 L 722.10427609961 129.59504422857145 L 723.91795745329 147.57164211428568 L 725.73163880696 143.96408022857142 L 727.54532016064 152.81018719999997" class="highcharts-graph" stroke="#333333" stroke-width="2" stroke-linejoin="round" stroke-linecap="round"></path><path fill="none" d="M -9.74090266376046 255.19919794285715 L 0.25909733623954 255.19919794285715 L 2.0727786899164 255.19919794285715 L 3.8864600435932 255.1992344 L 5.70014139727 255.19912502857142 L 7.5138227509468 255.1991068 L 9.3275041046236 255.1992344 L 11.1411854583 255.1992344 L 12.954866811977 255.1992344 L 14.768548165654 255.1992344 L 16.582229519331 255.1992344 L 18.395910873008 255.1992344 L 20.209592226684 255.19903388571427 L 22.023273580361 255.19876045714284 L 23.836954934038 255.19866931428572 L 25.650636287715 255.19777611428572 L 27.464317641392 255.19671885714286 L 29.277998995069 255.19682822857143 L 31.091680348745 255.19666417142855 L 32.905361702422 255.19642720000002 L 34.719043056099 255.19715634285714 L 36.532724409776 255.19722925714285 L 38.346405763453 255.19691937142858 L 40.160087117129 255.19677354285713 L 41.973768470806 255.19628137142857 L 43.787449824483 255.19608085714285 L 45.60113117816 255.1954793142857 L 47.414812531837 255.1951512 L 49.228493885513 255.1944585142857 L 51.04217523919 255.19041177142856 L 52.855856592867 255.18709417142856 L 54.669537946544 255.1874222857143 L 56.483219300221 255.18840662857144 L 58.296900653897 255.1883884 L 60.110582007574 255.18864359999998 L 61.924263361251 255.1894821142857 L 63.737944714928 255.1893362857143 L 65.551626068605 255.1899925142857 L 67.365307422282 255.19070342857142 L 69.178988775958 255.18778685714287 L 70.992670129635 255.182774 L 72.806351483312 255.16924840000001 L 74.620032836989 255.15568634285714 L 76.433714190666 255.12015885714285 L 78.247395544342 255.11377885714285 L 80.061076898019 255.09609714285716 L 81.874758251696 255.04033594285715 L 83.688439605373 254.91173337142857 L 85.50212095905 254.9708850857143 L 87.315802312726 254.97850462857141 L 89.129483666403 254.9942358857143 L 90.94316502008 255.01786011428572 L 92.756846373757 255.0234562857143 L 94.570527727434 255.02502394285713 L 96.384209081111 255.02547965714285 L 98.197890434787 255.07349371428572 L 100.01157178846 255.0767384 L 101.82525314214 255.05727028571428 L 103.63893449582 255.0757176 L 105.45261584949 255.09159468571428 L 107.26629720317 255.1200677142857 L 109.07997855685 255.13231731428573 L 110.89365991053 255.1289814857143 L 112.7073412642 255.1370385142857 L 114.52102261788 255.14174148571428 L 116.33470397156 255.14965268571427 L 118.14838532523 255.16627714285715 L 119.96206667891 255.16142834285714 L 121.77574803259 255.16018880000001 L 123.58942938626 255.16182937142855 L 125.40311073994 255.17118062857142 L 127.21679209362 255.1693030857143 L 129.03047344729 255.16341525714284 L 130.84415480097 255.16144657142857 L 132.65783615465 255.1593138285714 L 134.47151750832 255.15012662857143 L 136.285198862 255.14405651428572 L 138.09888021568 255.12117965714285 L 139.91256156935 255.115146 L 141.72624292303 255.1206328 L 143.53992427671 255.1270128 L 145.35360563038 255.12586439999998 L 147.16728698406 255.1278330857143 L 148.98096833774 255.14287165714285 L 150.79464969141 255.14024674285713 L 152.60833104509 255.13849679999998 L 154.42201239877 255.1372208 L 156.23569375245 255.1330829142857 L 158.04937510612 255.13991862857142 L 159.8630564598 255.1386973142857 L 161.67673781348 255.13769474285715 L 163.49041916715 255.13723902857143 L 165.30410052083 255.1344136 L 167.11778187451 255.1356896 L 168.93146322818 255.135562 L 170.74514458186 255.13649165714287 L 172.55882593554 255.13521565714285 L 174.37250728921 255.13465057142855 L 176.18618864289 255.1337756 L 177.99986999657 255.12996582857141 L 179.81355135024 255.1230572 L 181.62723270392 255.11707822857142 L 183.4409140576 255.1162397142857 L 185.25459541127 255.11505485714287 L 187.06827676495 255.10528434285715 L 188.88195811863 255.08869634285713 L 190.6956394723 255.08835 L 192.50932082598 255.06993914285715 L 194.32300217966 255.05672342857142 L 196.13668353334 255.05021582857142 L 197.95036488701 255.0693922857143 L 199.76404624069 255.0652544 L 201.57772759437 255.06118942857142 L 203.39140894804 255.05316885714285 L 205.20509030172 255.0436170857143 L 207.0187716554 255.0431796 L 208.83245300907 255.03964325714284 L 210.64613436275 255.04793725714285 L 212.45981571643 255.04952314285714 L 214.2734970701 255.05964 L 216.08717842378 255.06297582857144 L 217.90085977746 255.06135348571428 L 219.71454113113 255.05544742857143 L 221.52822248481 255.04514828571428 L 223.34190383849 255.04164839999999 L 225.15558519216 255.03032845714284 L 226.96926654584 255.0272296 L 228.78294789952 255.02892485714284 L 230.59662925319 255.02885194285713 L 232.41031060687 255.02887017142857 L 234.22399196055 255.02183394285714 L 236.03767331422 255.00715994285713 L 237.8513546679 254.97841348571427 L 239.66503602158 254.94647702857145 L 241.47871737526 254.91811337142855 L 243.29239872893 254.86756554285716 L 245.10608008261 254.8250382857143 L 246.91976143629 254.78251102857143 L 248.73344278996 254.65946817142856 L 250.54712414364 254.6018658857143 L 252.36080549732 254.37645137142857 L 254.17448685099 254.10096297142857 L 255.98816820467 253.49316771428573 L 257.80184955835 253.3636537142857 L 259.61553091202 253.89277445714285 L 261.4292122657 253.43890125714285 L 263.24289361938 253.68185165714286 L 265.05657497305 253.74898748571428 L 266.87025632673 253.68516925714286 L 268.68393768041 253.57109485714287 L 270.49761903408 253.55862651428572 L 272.31130038776 253.73744879999998 L 274.12498174144 253.87336102857142 L 275.93866309511 253.82476365714285 L 277.75234444879 253.92704417142858 L 279.56602580247 254.22925565714286 L 281.37970715615 254.11589217142858 L 283.19338850982 254.07207068571427 L 285.0070698635 254.0666750285714 L 286.82075121718 253.97059222857143 L 288.63443257085 253.98497457142855 L 290.44811392453 253.95096005714285 L 292.26179527821 253.82099034285716 L 294.07547663188 253.6583368 L 295.88915798556 253.6541989142857 L 297.70283933924 253.6180152 L 299.51652069291 253.6146429142857 L 301.33020204659 253.62306451428572 L 303.14388340027 253.6882498857143 L 304.95756475394 253.59306028571427 L 306.77124610762 253.33286565714286 L 308.5849274613 252.86397211428573 L 310.39860881497 252.67382988571427 L 312.21229016865 251.60297422857144 L 314.02597152233 250.09554428571428 L 315.839652876 246.52263491428573 L 317.65333422968 242.70227268571426 L 319.46701558336 243.13232114285714 L 321.28069693704 243.73021828571427 L 323.09437829071 247.05793514285713 L 324.90805964439 246.05724125714283 L 326.72174099807 244.77353057142858 L 328.53542235174 243.94998194285714 L 330.34910370542 244.29470245714285 L 332.1627850591 244.20678605714286 L 333.97646641277 244.46791034285712 L 335.79014776645 245.43710525714286 L 337.60382912013 246.98137514285713 L 339.4175104738 247.5604057142857 L 341.23119182748 248.08759422857142 L 343.04487318116 246.9616336 L 344.85855453483 247.15130188571428 L 346.67223588851 247.67743314285713 L 348.48591724219 248.48592497142857 L 350.29959859586 249.37374754285713 L 352.11327994954 249.81639194285714 L 353.92696130322 248.85935548571427 L 355.74064265689 249.16614234285714 L 357.55432401057 249.54715594285716 L 359.36800536425 249.61022680000002 L 361.18168671792 249.55262451428572 L 362.9953680716 248.71040982857141 L 364.80904942528 247.61660439999997 L 366.62273077896 246.87087354285714 L 368.43641213263 247.42378257142855 L 370.25009348631 247.59691754285714 L 372.06377483999 247.73450680000002 L 373.87745619366 247.08832217142856 L 375.69113754734 247.23938234285714 L 377.50481890102 247.26883971428572 L 379.31850025469 247.46836965714286 L 381.13218160837 247.76184965714288 L 382.94586296205 247.71101017142857 L 384.75954431572 248.4480642285714 L 386.5732256694 248.82869502857142 L 388.38690702308 248.78310537142858 L 390.20058837675 249.08376742857143 L 392.01426973043 249.14228114285714 L 393.82795108411 249.71903314285714 L 395.64163243778 250.01971342857144 L 397.45531379146 250.6136732 L 399.26899514514 250.6917097142857 L 401.08267649881 250.2509793142857 L 402.89635785249 250.55257102857144 L 404.71003920617 250.89085685714286 L 406.52372055985 250.850116 L 408.33740191352 250.2075953142857 L 410.1510832672 250.53477994285714 L 411.96476462088 250.4300021142857 L 413.77844597455 250.40840125714286 L 415.59212732823 250.72760177142857 L 417.40580868191 251.0677286857143 L 419.21949003558 251.07243165714286 L 421.03317138926 251.34647999999999 L 422.84685274294 251.6181950857143 L 424.66053409661 252.46830274285713 L 426.47421545029 252.24957811428573 L 428.28789680397 252.1568676 L 430.10157815764 252.31864617142855 L 431.91525951132 252.26669474285714 L 433.728940865 252.14348782857144 L 435.54262221867 252.07385468571428 L 437.35630357235 251.69617691428573 L 439.16998492603 251.5183572 L 440.9836662797 251.7762914857143 L 442.79734763338 252.01727319999998 L 444.61102898706 251.9996826285714 L 446.42471034074 252.09764297142857 L 448.23839169441 252.3561241142857 L 450.05207304809 252.27422314285712 L 451.86575440177 252.23991697142856 L 453.67943575544 252.16193514285715 L 455.49311710912 252.16581782857145 L 457.3067984628 252.18298914285714 L 459.12047981647 252.1925409142857 L 460.93416117015 252.33229937142858 L 462.74784252383 252.25836428571426 L 464.5615238775 252.06638097142857 L 466.37520523118 252.0741281142857 L 468.18888658486 251.88613685714284 L 470.00256793853 251.63310605714287 L 471.81624929221 251.61956222857143 L 473.62993064589 251.60259142857143 L 475.44361199956 251.53932005714285 L 477.25729335324 251.68502102857144 L 479.07097470692 251.83331045714286 L 480.88465606059 252.2372556 L 482.69833741427 252.33842417142858 L 484.51201876795 252.25207542857143 L 486.32570012162 252.16370331428573 L 488.1393814753 252.25322382857144 L 489.95306282898 252.2410106857143 L 491.76674418266 252.16501577142856 L 493.58042553633 252.08264085714285 L 495.39410689001 251.91891182857142 L 497.20778824369 251.7008981142857 L 499.02146959736 251.25985782857143 L 500.83515095104 250.29733457142856 L 502.64883230472 250.90137474285712 L 504.46251365839 251.00352765714285 L 506.27619501207 250.80071657142855 L 508.08987636575 250.45842045714284 L 509.90355771942 249.78496588571429 L 511.7172390731 249.3864164 L 513.53092042678 249.61112 L 515.34460178045 249.71597074285714 L 517.15828313413 249.5401197142857 L 518.97196448781 249.96900154285714 L 520.78564584148 250.16377382857144 L 522.59932719516 250.3177141142857 L 524.41300854884 250.39186794285715 L 526.22668990251 250.307178 L 528.04037125619 249.8410369714286 L 529.85405260987 249.72637925714287 L 531.66773396355 249.87419474285713 L 533.48141531722 249.92131559999999 L 535.2950966709 249.92742217142856 L 537.10877802458 249.8811216 L 538.92245937825 249.87317394285714 L 540.73614073193 249.8360788 L 542.54982208561 249.75481582857142 L 544.36350343928 249.5145814857143 L 546.17718479296 249.39620514285713 L 547.99086614664 249.42238137142857 L 549.80454750031 249.38738251428572 L 551.61822885399 249.5106441142857 L 553.43191020767 249.15742908571428 L 555.24559156134 248.16927645714287 L 557.05927291502 247.56370508571428 L 558.8729542687 245.8607008 L 560.68663562237 246.84593685714287 L 562.50031697605 246.7124854857143 L 564.31399832973 246.7584944 L 566.1276796834 246.75122119999997 L 567.94136103708 246.73202651428574 L 569.75504239076 246.89723205714284 L 571.56872374444 247.7993276 L 573.38240509811 247.7311345142857 L 575.19608645179 247.86711965714284 L 577.00976780547 247.83545662857142 L 578.82344915914 247.7739898857143 L 580.63713051282 247.34957405714283 L 582.4508118665 247.45836217142858 L 584.26449322017 247.54206777142858 L 586.07817457385 247.44773491428572 L 587.89185592753 247.37775542857145 L 589.7055372812 247.10203005714285 L 591.51921863488 247.06768742857145 L 593.33289998856 246.52412965714285 L 595.14658134223 246.13028314285714 L 596.96026269591 246.13923337142856 L 598.77394404959 245.85831285714283 L 600.58762540326 245.7895729142857 L 602.40130675694 245.60883662857142 L 604.21498811062 245.4433212 L 606.02866946429 245.24118457142856 L 607.84235081797 244.28792142857142 L 609.65603217165 242.9728576 L 611.46971352532 242.62427262857142 L 613.283394879 244.53604874285713 L 615.09707623268 243.7999608 L 616.91075758636 243.60584474285713 L 618.72443894003 242.53333028571427 L 620.53812029371 242.21573388571426 L 622.35180164739 242.05052834285715 L 624.16548300106 240.58079508571427 L 625.97916435474 239.31879462857142 L 627.79284570842 239.9176214285714 L 629.60652706209 240.65252451428572 L 631.42020841577 242.27659908571428 L 633.23388976945 241.65489542857142 L 635.04757112312 240.2436941142857 L 636.8612524768 239.92068382857144 L 638.67493383048 239.42610622857143 L 640.48861518415 238.5738293714286 L 642.30229653783 236.11585234285712 L 644.11597789151 233.1073542285714 L 645.92965924518 231.17379497142858 L 647.74334059886 226.35204617142858 L 649.55702195254 224.4021358857143 L 651.37070330621 218.82032857142858 L 653.18438465989 222.13120222857142 L 654.99806601357 220.88429502857144 L 656.81174736725 222.90879662857142 L 658.62542872092 222.24026377142854 L 660.4391100746 226.6601090285714 L 662.25279142828 222.31624045714284 L 664.06647278195 220.76713999999998 L 665.88015413563 217.6713817142857 L 667.69383548931 208.86951548571426 L 669.50751684298 200.86861268571428 L 671.32119819666 200.62987308571428 L 673.13487955034 195.5747621142857 L 674.94856090401 199.04278428571428 L 676.76224225769 206.9380525142857 L 678.57592361137 206.9351724 L 680.38960496504 202.10263228571426 L 682.20328631872 199.28004737142857 L 684.0169676724 187.85494388571428 L 685.83064902607 181.18560177142857 L 687.64433037975 181.05123897142857 L 689.45801173343 167.19147279999999 L 691.2716930871 168.71051434285712 L 693.08537444078 160.8850433142857 L 694.89905579446 147.90854257142857 L 696.71273714814 123.37893731428571 L 698.52641850181 73.11950297142852 L 700.34009985549 31.266229028571445 L 702.15378120917 52.924961885714254 L 703.96746256284 72.20856657142858 L 705.78114391652 57.06530845714286 L 707.5948252702 74.35738702857142 L 709.40850662387 103.6782082285714 L 711.22218797755 112.39660582857141 L 713.03586933123 133.70447514285715 L 714.8495506849 153.5740008 L 716.66323203858 130.20801640000002 L 718.47691339226 123.78501520000003 L 720.29059474593 116.60337731428572 L 722.10427609961 129.59504422857145 L 723.91795745329 147.57164211428568 L 725.73163880696 143.96408022857142 L 727.54532016064 152.81018719999997 L 737.54532016064 152.81018719999997" stroke-linejoin="round" visibility="visible" stroke="rgba(192,192,192,0.0001)" stroke-width="22" class="highcharts-tracker"></path></g><g class="highcharts-markers highcharts-series-0 highcharts-line-series highcharts-color-undefined highcharts-tracker" transform="translate(62,45) scale(1 1)" clip-path="none"></g><g class="highcharts-series highcharts-series-1 highcharts-flags-series highcharts-color-0 " transform="translate(62,45) scale(1 1)" clip-path="url(#highcharts-v8kdur0-20)"></g><g class="highcharts-markers highcharts-series-1 highcharts-flags-series highcharts-color-0 highcharts-tracker" transform="translate(62,45) scale(1 1)"><g class="highcharts-label highcharts-point" transform="translate(220,289)"><path fill="#ffffff" class="highcharts-label-box" d="M 0.5 0.5 L 118.5 0.5 118.5 19.5 0.5 19.5 Z M 59.5 19.5 L 59.5 30" stroke="#333" stroke-width="1"></path><text x="3" style="font-size:11px;font-weight:bold;" y="14"><tspan>CoinDesk BPI in effect</tspan></text></g></g><g class="highcharts-series highcharts-series-2 highcharts-flags-series highcharts-color-0 " transform="translate(62,45) scale(1 1)" clip-path="url(#highcharts-v8kdur0-20)"></g><g class="highcharts-markers highcharts-series-2 highcharts-flags-series highcharts-color-0 highcharts-tracker" transform="translate(62,45) scale(1 1)"><g class="highcharts-label highcharts-point" transform="translate(220,289)"><path fill="#ffffff" class="highcharts-label-box" d="M 0.5 0.5 L 118.5 0.5 118.5 19.5 0.5 19.5 Z M 59.5 19.5 L 59.5 30" stroke="#333" stroke-width="1"></path><text x="3" style="font-size:11px;font-weight:bold;" y="14"><tspan>CoinDesk BPI in effect</tspan></text></g></g><g class="highcharts-series highcharts-series-3 highcharts-flags-series highcharts-color-0 " transform="translate(62,45) scale(1 1)" clip-path="url(#highcharts-v8kdur0-20)"></g><g class="highcharts-markers highcharts-series-3 highcharts-flags-series highcharts-color-0 highcharts-tracker" transform="translate(62,45) scale(1 1)"><g class="highcharts-label highcharts-point" transform="translate(220,289)"><path fill="#ffffff" class="highcharts-label-box" d="M 0.5 0.5 L 118.5 0.5 118.5 19.5 0.5 19.5 Z M 59.5 19.5 L 59.5 30" stroke="#333" stroke-width="1"></path><text x="3" style="font-size:11px;font-weight:bold;" y="14"><tspan>CoinDesk BPI in effect</tspan></text></g></g></g><g class="highcharts-axis-labels highcharts-xaxis-labels "><text x="199.83978287943765" style="color:#8a8a8a;cursor:default;font-size:11px;fill:#8a8a8a;" text-anchor="middle" transform="translate(0,0)" y="383" opacity="1"><tspan>2012</tspan></text><text x="389.23993567054464" style="color:#8a8a8a;cursor:default;font-size:11px;fill:#8a8a8a;" text-anchor="middle" transform="translate(0,0)" y="383" opacity="1"><tspan>2014</tspan></text><text x="578.380991125412" style="color:#8a8a8a;cursor:default;font-size:11px;fill:#8a8a8a;" text-anchor="middle" transform="translate(0,0)" y="383" opacity="1"><tspan>2016</tspan></text><text x="767.781143916519" style="color:#8a8a8a;cursor:default;font-size:11px;fill:#8a8a8a;" text-anchor="middle" transform="translate(0,0)" y="383" opacity="1"><tspan>2018</tspan></text></g><g class="highcharts-axis-labels highcharts-yaxis-labels "><text x="0" style="color:#8a8a8a;cursor:default;font-size:11px;fill:#8a8a8a;" text-anchor="end" transform="translate(0,0)" y="-9999"><tspan>$-5000</tspan></text><text x="47" style="color:#8a8a8a;cursor:default;font-size:11px;fill:#8a8a8a;" text-anchor="end" transform="translate(0,0)" y="298" opacity="1"><tspan>$0</tspan></text><text x="47" style="color:#8a8a8a;cursor:default;font-size:11px;fill:#8a8a8a;" text-anchor="end" transform="translate(0,0)" y="234" opacity="1"><tspan>$5000</tspan></text><text x="47" style="color:#8a8a8a;cursor:default;font-size:11px;fill:#8a8a8a;" text-anchor="end" transform="translate(0,0)" y="171" opacity="1"><tspan>$10000</tspan></text><text x="47" style="color:#8a8a8a;cursor:default;font-size:11px;fill:#8a8a8a;" text-anchor="end" transform="translate(0,0)" y="107" opacity="1"><tspan>$15000</tspan></text><text x="0" style="color:#8a8a8a;cursor:default;font-size:11px;fill:#8a8a8a;" text-anchor="end" transform="translate(0,0)" y="-9999"><tspan>$20000</tspan></text></g></svg>